PathFileType	4	(X/Y/Z)	C:\Git\research_data\torsion_deformities_healthy_kinematics\simulations\P01\post\Stand01\marker_experimental_HJC.trc
DataRate	CameraRate	NumFrames	NumMarkers	Units	OrigDataRate	OrigDataStartFrame	OrigNumFrames
150	150	2	231	mm	150	94	150
Frame#	Time	LFHD			LBHD			RFHD			RBHD			C7			T10			CLAV			STRN			RBAK			LSHO			LUPA			LELB			LFRA			LWRB			LWRA			LFIN			RSHO			RUPA			RELB			RFRA			RWRB			RWRA			RFIN			SACR			LASI			RASI			LT1			LT2			LT3			LS1			LS2			LS3			LHEE			LTOE			RT1			RT2			RT3			RS1			RS2			RS3			RHEE			RTOE			PELO			PELA			PELL			PELP			SACO			SACA			SACL			SACP			LFEO			LFEA			LFEL			LFEP			RFEO			RFEA			RFEL			RFEP			LTIO			LTIA			LTIL			LTIP			RTIO			RTIA			RTIL			RTIP			LFOO			LFOA			LFOL			LFOP			RFOO			RFOA			RFOL			RFOP			LTOO			LTOA			LTOL			LTOP			RTOO			RTOA			RTOL			RTOP			HEDO			HEDA			HEDL			HEDP			LCLO			LCLA			LCLL			LCLP			RCLO			RCLA			RCLL			RCLP			TRXO			TRXA			TRXL			TRXP			LHUO			LHUA			LHUL			LHUP			LRAO			LRAA			LRAL			LRAP			LHNO			LHNA			LHNL			LHNP			RHUO			RHUA			RHUL			RHUP			RRAO			RRAA			RRAL			RRAP			RHNO			RHNA			RHNL			RHNP			LPelvisAngles			RPelvisAngles			LFootProgressAngles			RFootProgressAngles			LHipAngles			RHipAngles			LKneeAngles			RKneeAngles			LAnkleAngles			RAnkleAngles			LFFootAngles			RFFootAngles			LAbsAnkleAngle			RAbsAnkleAngle			RNeckAngles			LNeckAngles			RSpineAngles			LSpineAngles			LShoulderAngles			LElbowAngles			LWristAngles			RShoulderAngles			RElbowAngles			RWristAngles			RThoraxAngles			LThoraxAngles			RHeadAngles			LHeadAngles			LHipPower			LKneePower			LAnklePower			RHipPower			RKneePower			RAnklePower			LWaistPower			RWaistPower			LNeckPower			RNeckPower			LShoulderPower			RShoulderPower			LElbowPower			RElbowPower			LWristPower			RWristPower			F_ForcePlate1			F_ForcePlate2			F_ForcePlate3			LGRF			RGRF			LHipForce			RHipForce			LKneeForce			RKneeForce			LAnkleForce			RAnkleForce			LWaistForce			RWaistForce			LNeckForce			RNeckForce			LShoulderForce			RShoulderForce			LElbowForce			RElbowForce			LWristForce			RWristForce			LNormalisedGRF			RNormalisedGRF			LGroundReactionForce			RGroundReactionForce			LHipMoment			RHipMoment			LKneeMoment			RKneeMoment			LAnkleMoment			RAnkleMoment			LWaistMoment			RWaistMoment			LNeckMoment			RNeckMoment			LShoulderMoment			RShoulderMoment			LElbowMoment			RElbowMoment			LWristMoment			RWristMoment			LKNE			RKNE			LANK			RANK			LKJC			RKJC			LAJC			RAJC			LTHI			RTHI			LTIB			RTIB			P_ForcePlate1			P_ForcePlate2			P_ForcePlate3			CentreOfMass			CentreOfMassFloor			funktRKJC			funktLKJC			funktRHIP			funktLHIP			LHJC			RHJC			LHF		
		X1	Y1	Z1	X2	Y2	Z2	X3	Y3	Z3	X4	Y4	Z4	X5	Y5	Z5	X6	Y6	Z6	X7	Y7	Z7	X8	Y8	Z8	X9	Y9	Z9	X10	Y10	Z10	X11	Y11	Z11	X12	Y12	Z12	X13	Y13	Z13	X14	Y14	Z14	X15	Y15	Z15	X16	Y16	Z16	X17	Y17	Z17	X18	Y18	Z18	X19	Y19	Z19	X20	Y20	Z20	X21	Y21	Z21	X22	Y22	Z22	X23	Y23	Z23	X24	Y24	Z24	X25	Y25	Z25	X26	Y26	Z26	X27	Y27	Z27	X28	Y28	Z28	X29	Y29	Z29	X30	Y30	Z30	X31	Y31	Z31	X32	Y32	Z32	X33	Y33	Z33	X34	Y34	Z34	X35	Y35	Z35	X36	Y36	Z36	X37	Y37	Z37	X38	Y38	Z38	X39	Y39	Z39	X40	Y40	Z40	X41	Y41	Z41	X42	Y42	Z42	X43	Y43	Z43	X44	Y44	Z44	X45	Y45	Z45	X46	Y46	Z46	X47	Y47	Z47	X48	Y48	Z48	X49	Y49	Z49	X50	Y50	Z50	X51	Y51	Z51	X52	Y52	Z52	X53	Y53	Z53	X54	Y54	Z54	X55	Y55	Z55	X56	Y56	Z56	X57	Y57	Z57	X58	Y58	Z58	X59	Y59	Z59	X60	Y60	Z60	X61	Y61	Z61	X62	Y62	Z62	X63	Y63	Z63	X64	Y64	Z64	X65	Y65	Z65	X66	Y66	Z66	X67	Y67	Z67	X68	Y68	Z68	X69	Y69	Z69	X70	Y70	Z70	X71	Y71	Z71	X72	Y72	Z72	X73	Y73	Z73	X74	Y74	Z74	X75	Y75	Z75	X76	Y76	Z76	X77	Y77	Z77	X78	Y78	Z78	X79	Y79	Z79	X80	Y80	Z80	X81	Y81	Z81	X82	Y82	Z82	X83	Y83	Z83	X84	Y84	Z84	X85	Y85	Z85	X86	Y86	Z86	X87	Y87	Z87	X88	Y88	Z88	X89	Y89	Z89	X90	Y90	Z90	X91	Y91	Z91	X92	Y92	Z92	X93	Y93	Z93	X94	Y94	Z94	X95	Y95	Z95	X96	Y96	Z96	X97	Y97	Z97	X98	Y98	Z98	X99	Y99	Z99	X100	Y100	Z100	X101	Y101	Z101	X102	Y102	Z102	X103	Y103	Z103	X104	Y104	Z104	X105	Y105	Z105	X106	Y106	Z106	X107	Y107	Z107	X108	Y108	Z108	X109	Y109	Z109	X110	Y110	Z110	X111	Y111	Z111	X112	Y112	Z112	X113	Y113	Z113	X114	Y114	Z114	X115	Y115	Z115	X116	Y116	Z116	X117	Y117	Z117	X118	Y118	Z118	X119	Y119	Z119	X120	Y120	Z120	X121	Y121	Z121	X122	Y122	Z122	X123	Y123	Z123	X124	Y124	Z124	X125	Y125	Z125	X126	Y126	Z126	X127	Y127	Z127	X128	Y128	Z128	X129	Y129	Z129	X130	Y130	Z130	X131	Y131	Z131	X132	Y132	Z132	X133	Y133	Z133	X134	Y134	Z134	X135	Y135	Z135	X136	Y136	Z136	X137	Y137	Z137	X138	Y138	Z138	X139	Y139	Z139	X140	Y140	Z140	X141	Y141	Z141	X142	Y142	Z142	X143	Y143	Z143	X144	Y144	Z144	X145	Y145	Z145	X146	Y146	Z146	X147	Y147	Z147	X148	Y148	Z148	X149	Y149	Z149	X150	Y150	Z150	X151	Y151	Z151	X152	Y152	Z152	X153	Y153	Z153	X154	Y154	Z154	X155	Y155	Z155	X156	Y156	Z156	X157	Y157	Z157	X158	Y158	Z158	X159	Y159	Z159	X160	Y160	Z160	X161	Y161	Z161	X162	Y162	Z162	X163	Y163	Z163	X164	Y164	Z164	X165	Y165	Z165	X166	Y166	Z166	X167	Y167	Z167	X168	Y168	Z168	X169	Y169	Z169	X170	Y170	Z170	X171	Y171	Z171	X172	Y172	Z172	X173	Y173	Z173	X174	Y174	Z174	X175	Y175	Z175	X176	Y176	Z176	X177	Y177	Z177	X178	Y178	Z178	X179	Y179	Z179	X180	Y180	Z180	X181	Y181	Z181	X182	Y182	Z182	X183	Y183	Z183	X184	Y184	Z184	X185	Y185	Z185	X186	Y186	Z186	X187	Y187	Z187	X188	Y188	Z188	X189	Y189	Z189	X190	Y190	Z190	X191	Y191	Z191	X192	Y192	Z192	X193	Y193	Z193	X194	Y194	Z194	X195	Y195	Z195	X196	Y196	Z196	X197	Y197	Z197	X198	Y198	Z198	X199	Y199	Z199	X200	Y200	Z200	X201	Y201	Z201	X202	Y202	Z202	X203	Y203	Z203	X204	Y204	Z204	X205	Y205	Z205	X206	Y206	Z206	X207	Y207	Z207	X208	Y208	Z208	X209	Y209	Z209	X210	Y210	Z210	X211	Y211	Z211	X212	Y212	Z212	X213	Y213	Z213	X214	Y214	Z214	X215	Y215	Z215	X216	Y216	Z216	X217	Y217	Z217	X218	Y218	Z218	X219	Y219	Z219	X220	Y220	Z220	X221	Y221	Z221	X222	Y222	Z222	X223	Y223	Z223	X224	Y224	Z224	X225	Y225	Z225	X226	Y226	Z226	X227	Y227	Z227	X228	Y228	Z228	X229	Y229	Z229	X230	Y230	Z230	X231	Y231	Z231	

94	0.620000	-334.432312	1545.611938	1298.571899	-333.017426	1521.579590	1159.284058	-461.149017	1542.956909	1306.446899	-483.906311	1518.331177	1180.596680	-400.519440	1406.340942	1149.029175	-393.382874	1225.994629	1086.093384	-406.522430	1338.728149	1266.345825	-407.550446	1302.360596	1286.890137	-508.013489	1267.650879	1076.749634	-254.147476	1379.869873	1182.053955	-145.996567	1189.351440	1152.285767	-88.517075	1113.780151	1172.576416	-42.152847	1070.524902	1193.631348	47.725369	939.849915	1269.773071	21.518368	948.054382	1333.924316	77.074615	899.197815	1351.233765	-554.577759	1367.795898	1175.496826	-622.624329	1281.773438	1156.314331	-694.330933	1092.929932	1145.498779	-817.624756	952.168213	1201.615112	-843.212830	910.005188	1219.692261	-842.863709	935.474976	1285.418823	-901.370606	883.970764	1294.808838	-393.788025	971.732971	1081.791260	-254.312271	934.128052	1268.302856	-540.562622	934.191101	1259.352295	-206.446747	643.604858	1238.120117	-191.153839	553.426758	1156.433716	-235.509018	566.910278	1292.127563	-202.937561	258.305847	1178.964844	-188.140457	179.749618	1086.839478	-227.657669	178.508469	1223.451782	-275.551208	39.399521	1091.225708	-226.281799	38.891132	1252.051880	-583.770019	661.006043	1197.074951	-555.209045	589.692078	1099.761108	-582.749451	572.169495	1239.855347	-577.080688	267.643433	1153.519775	-555.156921	203.023865	1053.466064	-571.267578	182.423172	1193.267456	-495.223175	41.332027	1085.152344	-539.867310	39.881836	1246.263428	-395.381622	848.723450	1198.437866	-395.844940	845.668701	1213.232544	-382.792877	848.720703	1198.831543	-396.150208	972.073059	1223.882568	-393.576782	959.615845	1140.538330	-393.769867	958.343018	1146.702881	-387.282410	959.614502	1140.735229	-393.961304	1021.290649	1153.260620	-281.647339	469.671417	1218.209106	-274.912537	472.333099	1255.807983	-244.298065	474.347015	1211.187988	-332.440064	848.772461	1200.470093	-498.712067	473.960327	1206.259033	-505.901276	475.707336	1243.227417	-461.923584	470.187866	1213.591553	-458.323212	848.674316	1196.405640	-266.454010	45.469944	1149.521851	-248.433792	40.694946	1182.997437	-231.540451	49.666687	1131.326172	-280.443909	436.071411	1212.768555	-505.403931	50.522320	1142.137573	-521.083374	45.346413	1177.953979	-469.220734	47.615444	1157.557495	-499.242126	440.420776	1201.180176	-227.021042	49.226048	1252.767944	-227.972961	62.534096	1253.689941	-214.273987	50.405991	1248.897461	-266.348969	55.259140	1125.084839	-539.518433	50.044994	1247.221924	-539.066162	63.220509	1248.464600	-526.744812	49.285263	1250.627930	-504.916138	60.868912	1119.864990	-214.109283	47.591648	1294.793213	-214.409882	51.794193	1295.084351	-210.083893	47.964245	1293.570923	-226.528793	49.496719	1254.472168	-550.888855	46.831253	1289.148438	-550.746033	50.991943	1289.540894	-546.855041	46.591328	1290.223999	-539.961853	50.249519	1248.930420	-410.085113	1443.512085	1128.493652	-392.258545	1484.154785	1349.956055	-185.101547	1449.110840	1109.356201	-419.018372	1665.620239	1088.451538	-257.785065	1333.085938	1179.402954	-178.460693	1318.521362	1327.589722	-244.727402	1501.022583	1188.918945	-406.112183	1340.080811	1259.489990	-546.807007	1321.521729	1172.791992	-631.098267	1299.090698	1314.382568	-519.311646	1157.788940	1163.221680	-406.112183	1340.080811	1259.490112	-406.112183	1340.080811	1259.489990	-415.929169	1307.713013	1423.546143	-573.266663	1337.428101	1248.964233	-401.480194	1175.752686	1227.345703	-120.556641	1095.342773	1170.985474	-209.704666	1052.959229	914.703369	-341.113342	964.552368	1269.336304	-257.785095	1333.085938	1179.402954	30.282639	938.567322	1300.764771	35.548050	791.401978	1116.866699	-158.919510	826.370178	1385.133789	-109.997833	1084.368530	1180.070068	96.538170	833.859436	1391.713989	208.728516	933.581299	1424.792114	178.078476	781.733582	1272.301392	30.282608	938.567322	1300.764771	-662.259399	1077.091187	1154.961914	-503.030457	1017.263245	944.106079	-848.566467	1177.429565	985.801269	-546.807007	1321.521729	1172.791992	-838.112915	918.093384	1254.330078	-780.009399	752.422607	1092.068848	-1002.517761	1006.635925	1105.055908	-674.569153	1065.961426	1161.917725	-934.753784	826.028503	1343.106689	-1058.611450	921.137451	1306.908813	-902.870850	916.444519	1471.578979	-838.112854	918.093384	1254.330078	-0.349577	1.756566	-11.655552	0.349577	-1.756566	-11.655552	-4.270734	-17.101498	-2.705300	-2.027935	-15.147966	-4.857778	7.715481	-12.026413	-14.099092	6.087126	-9.257208	-13.359076	-3.250919	-16.486338	-12.683932	-3.127640	-11.447676	-10.947417	0.642822	10.616108	-5.699555	0.307291	8.182343	-3.422631	0.000000	0.000000	-0.000000	0.000000	-0.000000	0.000000	0.000000	0.000000	-9.313059	0.000000	0.000000	-8.750387	1.116547	-8.405631	21.258232	-1.116547	8.405631	21.258232	-1.267239	1.588945	0.514362	1.267239	-1.588945	0.514362	-29.066946	-29.518784	-6.198495	0.000000	-0.000000	-35.158600	10.961329	123.561852	-1.558896	-26.601364	-40.446655	-7.750572	0.000000	-0.000000	-34.496197	8.274949	115.646019	-7.222343	1.584563	-3.361118	-11.067896	-1.584563	3.361118	-11.067896	2.266724	4.530401	-10.219636	-2.266724	-4.530401	-10.219636	-0.000000	-0.000017	-0.000000	-0.000000	-0.000050	-0.000000	0.000000	0.000029	0.000000	0.000000	0.000086	0.000000	-0.000000	-0.000057	-0.000000	0.000000	0.000030	0.000000	0.000000	0.000696	0.000000	0.000000	0.000696	0.000000	0.000000	0.007020	0.000000	0.000000	0.007020	0.000000	0.000000	0.000034	0.000000	-0.000000	-0.000130	-0.000000	0.000000	0.000002	0.000000	0.000000	0.000142	0.000000	-0.000000	-0.000001	-0.000000	-0.000000	-0.000028	-0.000000	-398.021027	1.304700	259.089996	-231.415008	1.697000	-251.317001	-396.987000	4.582600	-949.962036	0.000000	0.000000	0.000000	0.000000	0.000000	0.000000	-0.193342	1.563815	-0.109584	0.157783	1.569760	-0.072775	-0.063495	0.590358	0.074488	0.044095	0.591553	0.078599	-0.012556	-0.006406	0.141542	0.008162	-0.011627	0.141535	-0.000124	4.457740	0.921763	-0.000124	4.457740	0.921763	-0.143763	8.845608	1.747123	-0.143763	8.845608	1.747123	0.234005	0.424804	0.075380	-0.181979	0.442460	0.108072	0.103026	0.133694	0.134812	-0.080094	0.133533	0.149462	0.019937	0.040143	-0.038256	-0.033126	0.033852	-0.034955	0.000000	0.000000	0.000000	0.000000	0.000000	0.000000	0.000000	0.000000	0.000000	0.000000	0.000000	0.000000	-59.237576	-2.545563	13.033746	-46.365639	-1.689050	4.623003	-15.147610	0.801425	10.318086	-10.439621	0.543311	11.316922	-1.303419	0.732172	7.588594	-0.934460	0.512024	7.547858	-13.972008	-2.879086	-73.310852	13.972008	2.879086	-73.310852	-79.043732	-30.633894	928.653198	79.043732	30.633894	928.653198	-57.209618	-9.866500	36.348347	-44.180069	-7.824909	45.242882	-16.492414	-0.451929	22.164387	-13.057253	-0.521635	25.193800	-1.163722	0.000000	-2.231785	-2.012742	0.000000	-2.124586	-226.907547	480.022003	1207.671265	-552.635498	482.137115	1195.386230	-230.621002	46.538082	1130.384888	-541.690918	47.087231	1125.755737	-281.647339	469.671417	1218.208984	-498.712097	473.960327	1206.259155	-266.604462	49.669960	1150.201904	-505.337708	54.714775	1142.772583	-194.995972	673.248779	1188.276367	-588.883118	672.634766	1179.334839	-168.708252	253.360870	1126.558105	-610.872681	254.192108	1125.399292	-398.021027	1.304700	259.089996	-231.415008	1.697000	-251.317001	-396.987000	4.582600	-949.962036	-397.796509	934.210144	1236.686646	-397.796509	0.000000	1236.686646	0.000000	0.000000	0.000000	0.000000	0.000000	0.000000	0.000000	0.000000	0.000000	0.000000	0.000000	0.000000	-293.416574	850.337236	1194.083125	-496.934673	850.382063	1187.719461	-0.193342	1.563815	-0.109584	
95	0.626667	-334.435028	1545.613159	1298.585571	-333.028992	1521.581543	1159.297729	-461.152893	1542.952515	1306.473999	-483.918488	1518.325562	1180.624023	-400.529175	1406.337280	1149.050537	-393.391968	1225.988037	1086.121704	-406.518829	1338.730347	1266.368652	-407.543793	1302.363525	1286.915649	-508.024109	1267.639648	1076.784790	-254.151977	1379.873413	1182.062988	-145.996750	1189.359131	1152.289429	-88.512672	1113.789917	1172.577515	-42.143356	1070.536865	1193.627686	47.747498	939.867859	1269.765015	21.550459	948.076721	1333.921021	77.111084	899.222656	1351.222046	-554.582459	1367.788330	1175.530762	-622.629517	1281.763184	1156.359131	-694.331116	1092.914551	1145.558350	-817.609253	952.147644	1201.706543	-843.194885	909.986572	1219.785889	-842.836792	935.456726	1285.514771	-901.335388	883.945679	1294.918213	-393.790436	971.734314	1081.832031	-254.308960	934.125122	1268.339600	-540.559265	934.187988	1259.395508	-206.445572	643.601807	1238.148926	-191.153732	553.427551	1156.454468	-235.505936	566.904358	1292.151123	-202.937607	258.305206	1178.973267	-188.141769	179.752655	1086.845215	-227.657288	178.505783	1223.457642	-275.553284	39.400799	1091.225830	-226.281204	38.890762	1252.052002	-583.770508	661.003113	1197.107666	-555.212402	589.694275	1099.787964	-582.749329	572.165405	1239.883423	-577.079468	267.643860	1153.530151	-555.155945	203.029404	1053.475098	-571.267700	182.421463	1193.275269	-495.222870	41.333805	1085.153931	-539.867798	39.881512	1246.264771	-395.379639	848.722046	1198.475830	-395.842560	845.666931	1213.270386	-382.790894	848.719238	1198.869141	-396.147461	972.071045	1223.923584	-393.576294	959.615784	1140.578857	-393.769165	958.342834	1146.743286	-387.281891	959.614441	1140.775513	-393.960480	1021.290283	1153.302612	-281.644989	469.669311	1218.225464	-274.909668	472.329071	1255.824463	-244.295868	474.345276	1211.204102	-332.438049	848.771118	1200.506470	-498.712921	473.956573	1206.277832	-505.901001	475.701477	1243.246582	-461.924042	470.183350	1213.609009	-458.321106	848.672852	1196.445068	-266.454773	45.470398	1149.523804	-248.434143	40.694191	1182.999023	-231.541458	49.667564	1131.327881	-280.441833	436.069275	1212.783691	-505.405304	50.522221	1142.141846	-521.084961	45.345139	1177.957764	-469.222382	47.614731	1157.561890	-499.242981	440.417267	1201.197754	-227.020477	49.225666	1252.768188	-227.972427	62.533699	1253.690308	-214.273498	50.405693	1248.897461	-266.350769	55.259712	1125.085938	-539.518799	50.044659	1247.223389	-539.066406	63.220158	1248.466187	-526.745178	49.284809	1250.629395	-504.916107	60.869396	1119.866577	-214.107987	47.590870	1294.793213	-214.408630	51.793404	1295.084351	-210.082642	47.963524	1293.570923	-226.527954	49.496098	1254.472412	-550.889221	46.830647	1289.149780	-550.746338	50.991329	1289.542236	-546.855469	46.590679	1290.225342	-539.962219	50.248959	1248.931885	-410.096100	1443.510376	1128.514648	-392.255157	1484.153320	1349.975830	-185.114258	1449.120728	1109.360474	-419.043701	1665.618164	1088.473877	-257.788208	1333.089233	1179.414429	-178.451721	1318.534058	1327.595581	-244.735611	1501.026733	1188.921753	-406.109253	1340.082642	1259.512695	-546.810242	1321.514282	1172.827637	-631.088440	1299.087158	1314.425903	-519.309753	1157.782471	1163.262939	-406.109253	1340.082642	1259.512695	-406.109253	1340.082642	1259.512695	-415.910004	1307.722412	1423.571045	-573.264404	1337.423706	1249.002441	-401.474579	1175.753418	1227.375854	-120.551720	1095.351318	1170.991333	-209.728882	1052.952515	914.722168	-341.091278	964.557007	1269.374634	-257.788208	1333.089233	1179.414429	30.309641	938.587341	1300.760132	35.558636	791.413269	1116.867920	-158.878571	826.386475	1385.157471	-109.991386	1084.377808	1180.075195	96.582779	833.888000	1391.701660	208.774734	933.612549	1424.753418	178.101334	781.758301	1272.279419	30.309570	938.587280	1300.760132	-662.257446	1077.077026	1155.016235	-503.065430	1017.257874	944.126587	-848.603149	1177.411255	985.891479	-546.810303	1321.514282	1172.827637	-838.089966	918.075134	1254.424072	-780.016479	752.401245	1092.150391	-1002.529663	1006.614441	1105.180908	-674.565735	1065.946899	1161.974854	-934.701965	825.999695	1343.224609	-1058.580322	921.093872	1307.050293	-902.802246	916.423889	1471.689331	-838.089966	918.075073	1254.424072	-0.349393	1.755283	-11.656934	0.349393	-1.755283	-11.656934	-4.270957	-17.102489	-2.705858	-2.028517	-15.147982	-4.858145	7.715343	-12.025933	-14.097605	6.087689	-9.256777	-13.357169	-3.251406	-16.486326	-12.682996	-3.128513	-11.449911	-10.946249	0.642944	10.615742	-5.700948	0.307459	8.182792	-3.424201	-0.000000	0.000000	0.000000	0.000000	-0.000000	0.000000	0.000000	0.000000	-9.314353	0.000000	0.000000	-8.751927	1.115202	-8.404757	21.255466	-1.115202	8.404757	21.255466	-1.268556	1.584553	0.518359	1.268556	-1.584553	0.518359	-29.066980	-29.520176	-6.197593	-0.000000	-0.000000	-35.158653	10.959795	123.558929	-1.557914	-26.601503	-40.439877	-7.749885	0.000000	0.000000	-34.498299	8.279029	115.642769	-7.219744	1.585519	-3.355565	-11.065331	-1.585519	3.355565	-11.065331	2.270342	4.534041	-10.219316	-2.270342	-4.534041	-10.219316	-0.000000	-0.000023	-0.000000	-0.000000	-0.000047	-0.000000	0.000000	0.000029	0.000000	0.000000	0.000091	0.000000	-0.000000	-0.000057	-0.000000	0.000000	0.000030	0.000000	0.000000	0.000701	0.000000	0.000000	0.000701	0.000000	0.000000	0.007124	0.000000	0.000000	0.007124	0.000000	0.000000	0.000037	0.000000	-0.000000	-0.000122	-0.000000	0.000000	0.000002	0.000000	0.000000	0.000137	0.000000	-0.000000	-0.000001	-0.000000	-0.000000	-0.000031	-0.000000	-398.021027	1.304700	259.089996	-231.415008	1.697000	-251.317001	-396.987000	4.582600	-949.962036	0.000000	0.000000	0.000000	0.000000	0.000000	0.000000	-0.193358	1.563820	-0.109503	0.157817	1.569758	-0.072687	-0.063502	0.590355	0.074508	0.044107	0.591549	0.078617	-0.012557	-0.006407	0.141542	0.008164	-0.011628	0.141534	-0.000126	4.457718	0.921870	-0.000126	4.457718	0.921870	-0.144093	8.845687	1.746731	-0.144093	8.845687	1.746731	0.234012	0.424796	0.075408	-0.181983	0.442469	0.108056	0.103028	0.133684	0.134820	-0.080105	0.133536	0.149462	0.019939	0.040141	-0.038257	-0.033124	0.033857	-0.034956	0.000000	0.000000	0.000000	0.000000	0.000000	0.000000	0.000000	0.000000	0.000000	0.000000	0.000000	0.000000	-59.241909	-2.545780	13.008418	-46.375767	-1.689504	4.596481	-15.149397	0.801499	10.323055	-10.442192	0.543417	11.321075	-1.303417	0.732238	7.588470	-0.934454	0.512115	7.547626	-13.965751	-2.877873	-73.370949	13.965751	2.877873	-73.370949	-79.115540	-30.675064	928.758423	79.115540	30.675064	928.758423	-57.211002	-9.866604	36.354939	-44.185459	-7.827564	45.239922	-16.492674	-0.451859	22.165688	-13.061025	-0.521801	25.193594	-1.163873	0.000000	-2.231750	-2.012576	-0.000000	-2.124703	-226.905518	480.021210	1207.687378	-552.636597	482.134186	1195.406982	-230.621979	46.539131	1130.386475	-541.692261	47.088089	1125.759644	-281.644989	469.669311	1218.225464	-498.712921	473.956543	1206.277710	-266.605164	49.670387	1150.204102	-505.339081	54.714642	1142.776855	-194.994156	673.248108	1188.302002	-588.883728	672.634338	1179.367798	-168.708328	253.361404	1126.565796	-610.872986	254.192200	1125.409424	-398.021027	1.304700	259.089996	-231.415008	1.697000	-251.317001	-396.987000	4.582600	-949.962036	-397.793671	934.209656	1236.709717	-397.793671	0.000000	1236.709717	0.000000	0.000000	0.000000	0.000000	0.000000	0.000000	0.000000	0.000000	0.000000	0.000000	0.000000	0.000000	-293.414780	850.336104	1194.118761	-496.932859	850.380801	1187.759696	-0.193358	1.563820	-0.109503	
